<svg width="141" height="51" viewBox="0 0 141 51" fill="none" xmlns="http://www.w3.org/2000/svg">
<circle cx="25" cy="25.5" r="24.6194" fill="#1F8225"/>
<path d="M20.4707 17.156C20.4707 19.1718 18.8366 20.8059 16.8208 20.8059C14.805 20.8059 13.1709 19.1718 13.1709 17.156C13.1709 15.1402 14.805 13.506 16.8208 13.506C18.8366 13.506 20.4707 15.1402 20.4707 17.156Z" fill="#F4F4F4"/>
<path d="M30.1604 17.156C30.1604 19.1718 31.7945 20.8059 33.8103 20.8059C35.8261 20.8059 37.4603 19.1718 37.4603 17.156C37.4603 15.1402 35.8261 13.506 33.8103 13.506C31.7945 13.506 30.1604 15.1402 30.1604 17.156Z" fill="#F4F4F4"/>
<path d="M15.6911 21.3707C17.994 20.9797 20.6011 22.5005 21.0357 24.0213C21.0357 24.0213 21.8178 27.2367 22.991 28.0623C24.1642 28.8878 25.8153 29.1485 25.8153 29.1485C23.3386 31.6687 18.1244 31.2777 16.9512 31.2342L16.9474 31.2341C15.7685 31.1904 11.4296 31.0297 11.1287 27.0194C10.868 23.5433 13.7374 21.7025 15.6911 21.3707Z" fill="#F4F4F4"/>
<path d="M34.9401 21.3707C32.6372 20.9797 30.0301 22.5005 29.5956 24.0213C29.5956 24.0213 28.8134 27.2367 27.6403 28.0623C26.4671 28.8878 24.8159 29.1485 24.8159 29.1485C27.2927 31.6687 32.5068 31.2777 33.68 31.2342L33.6839 31.2341C34.8627 31.1904 39.2017 31.0297 39.5025 27.0194C39.7632 23.5433 36.8939 21.7025 34.9401 21.3707Z" fill="#F4F4F4"/>
<path d="M28.7265 21.6626H21.9481V20.799H28.7265V21.6626ZM28.7265 19.665H21.9481V18.8119H28.7265V19.665ZM23.8737 19.1032V23.8474H22.6907V16.4606H23.6405L26.8096 21.3296V16.471H27.9925V23.8474H26.9995L23.8737 19.1032Z" fill="#F4F4F4"/>
<path d="M13.9797 35.3182C13.9797 35.1099 14.0166 34.9064 14.0903 34.7078C14.1672 34.5059 14.2777 34.3233 14.4219 34.1599C14.5661 33.9933 14.7423 33.8619 14.9506 33.7658C15.1588 33.6665 15.3959 33.6168 15.6619 33.6168C15.9759 33.6168 16.2466 33.6857 16.4741 33.8235C16.7048 33.9612 16.8762 34.1407 16.9883 34.3617L16.4789 34.7126C16.4212 34.5844 16.3459 34.4835 16.253 34.4098C16.1601 34.3329 16.0608 34.28 15.955 34.2512C15.8493 34.2192 15.7452 34.2031 15.6426 34.2031C15.476 34.2031 15.3302 34.2368 15.2053 34.3041C15.0835 34.3714 14.981 34.4595 14.8977 34.5684C14.8144 34.6773 14.7519 34.7991 14.7103 34.9337C14.6718 35.0682 14.6526 35.2028 14.6526 35.3374C14.6526 35.488 14.6766 35.6338 14.7247 35.7747C14.7727 35.9125 14.84 36.0359 14.9265 36.1448C15.0162 36.2505 15.122 36.3354 15.2437 36.3995C15.3687 36.4604 15.5049 36.4908 15.6523 36.4908C15.758 36.4908 15.8653 36.4732 15.9743 36.438C16.0832 36.4027 16.1841 36.3467 16.277 36.2698C16.37 36.1929 16.4421 36.0935 16.4933 35.9718L17.0364 36.2842C16.9691 36.454 16.8586 36.5982 16.7048 36.7167C16.5542 36.8353 16.3844 36.925 16.1953 36.9859C16.0063 37.0467 15.8189 37.0772 15.633 37.0772C15.3895 37.0772 15.1668 37.0275 14.965 36.9282C14.7631 36.8257 14.5885 36.6911 14.4411 36.5245C14.2969 36.3547 14.1832 36.1656 14.0999 35.9574C14.0198 35.7459 13.9797 35.5328 13.9797 35.3182Z" fill="#F4F4F4"/>
<path d="M18.8952 37.0724C18.6453 37.0724 18.4178 37.0243 18.2127 36.9282C18.0109 36.8321 17.8363 36.7023 17.6889 36.5389C17.5447 36.3723 17.4325 36.1865 17.3524 35.9814C17.2723 35.7731 17.2323 35.5601 17.2323 35.3422C17.2323 35.1147 17.2739 34.8984 17.3572 34.6934C17.4438 34.4851 17.5607 34.3009 17.7081 34.1407C17.8587 33.9773 18.0349 33.8491 18.2368 33.7562C18.4418 33.6601 18.6661 33.612 18.9096 33.612C19.1563 33.612 19.3806 33.6617 19.5825 33.761C19.7875 33.8603 19.9621 33.9933 20.1063 34.1599C20.2505 34.3265 20.3627 34.5123 20.4428 34.7174C20.5229 34.9225 20.5629 35.1339 20.5629 35.3518C20.5629 35.5761 20.5213 35.7924 20.4379 36.0006C20.3546 36.2057 20.2377 36.3899 20.0871 36.5533C19.9397 36.7135 19.7635 36.8401 19.5584 36.933C19.3566 37.0259 19.1355 37.0724 18.8952 37.0724ZM17.9051 35.3422C17.9051 35.4896 17.9276 35.6322 17.9724 35.7699C18.0173 35.9077 18.0814 36.0311 18.1647 36.14C18.2512 36.2457 18.3553 36.3306 18.4771 36.3947C18.602 36.4556 18.743 36.486 18.9 36.486C19.0602 36.486 19.2028 36.454 19.3277 36.3899C19.4527 36.3226 19.5568 36.2345 19.6401 36.1256C19.7234 36.0134 19.7859 35.8901 19.8276 35.7555C19.8724 35.6177 19.8949 35.48 19.8949 35.3422C19.8949 35.1948 19.8708 35.0538 19.8228 34.9193C19.7779 34.7815 19.7122 34.6597 19.6257 34.554C19.5424 34.4451 19.4383 34.3601 19.3133 34.2993C19.1916 34.2352 19.0538 34.2031 18.9 34.2031C18.7366 34.2031 18.5924 34.2368 18.4675 34.3041C18.3457 34.3682 18.2432 34.4547 18.1599 34.5636C18.0766 34.6725 18.0125 34.7943 17.9676 34.9289C17.926 35.0634 17.9051 35.2012 17.9051 35.3422Z" fill="#F4F4F4"/>
<path d="M23.0906 34.53C23.0681 34.5075 23.0265 34.4771 22.9656 34.4386C22.9079 34.4002 22.8358 34.3634 22.7493 34.3281C22.666 34.2929 22.5747 34.2624 22.4754 34.2368C22.3761 34.208 22.2751 34.1935 22.1726 34.1935C21.9932 34.1935 21.857 34.2272 21.7641 34.2945C21.6744 34.3617 21.6295 34.4563 21.6295 34.578C21.6295 34.6709 21.6584 34.7446 21.716 34.7991C21.7737 34.8536 21.8602 34.9 21.9756 34.9385C22.0909 34.9769 22.2351 35.0186 22.4081 35.0634C22.6324 35.1179 22.8262 35.1852 22.9896 35.2653C23.1563 35.3422 23.2828 35.4447 23.3693 35.5729C23.459 35.6978 23.5039 35.8645 23.5039 36.0727C23.5039 36.2553 23.4703 36.4123 23.403 36.5437C23.3357 36.6719 23.2428 36.776 23.1242 36.8561C23.0057 36.9362 22.8711 36.9955 22.7205 37.0339C22.5699 37.0692 22.4097 37.0868 22.2399 37.0868C22.0701 37.0868 21.9003 37.0692 21.7304 37.0339C21.5606 36.9987 21.3972 36.949 21.2402 36.8849C21.0832 36.8177 20.939 36.7376 20.8077 36.6446L21.1009 36.0727C21.1297 36.1016 21.181 36.14 21.2546 36.1881C21.3283 36.2329 21.4181 36.2794 21.5238 36.3274C21.6295 36.3723 21.7449 36.4107 21.8698 36.4428C21.9948 36.4748 22.1213 36.4908 22.2495 36.4908C22.4289 36.4908 22.5651 36.4604 22.658 36.3995C22.7509 36.3387 22.7974 36.2521 22.7974 36.14C22.7974 36.0375 22.7606 35.9574 22.6869 35.8997C22.6132 35.842 22.5106 35.7924 22.3793 35.7507C22.2479 35.7059 22.0925 35.6578 21.9131 35.6065C21.6984 35.5456 21.519 35.4784 21.3748 35.4047C21.2306 35.3278 21.1233 35.2317 21.0528 35.1163C20.9823 35.001 20.9471 34.8568 20.9471 34.6838C20.9471 34.4499 21.0015 34.2544 21.1105 34.0974C21.2226 33.9372 21.3732 33.8171 21.5622 33.737C21.7513 33.6537 21.9611 33.612 22.1918 33.612C22.352 33.612 22.5026 33.6296 22.6436 33.6649C22.7878 33.7001 22.9224 33.7466 23.0473 33.8042C23.1723 33.8619 23.2844 33.9244 23.3837 33.9917L23.0906 34.53Z" fill="#F4F4F4"/>
<path d="M24.0051 37.0484V33.636H25.4517C25.6087 33.636 25.7529 33.6681 25.8843 33.7322C26.0156 33.7962 26.1294 33.8827 26.2255 33.9917C26.3248 34.1006 26.4017 34.2224 26.4562 34.3569C26.5106 34.4915 26.5379 34.6293 26.5379 34.7703C26.5379 34.9625 26.493 35.1451 26.4033 35.3182C26.3136 35.4912 26.1902 35.6322 26.0332 35.7411C25.8762 35.85 25.6904 35.9045 25.4757 35.9045H24.6683V37.0484H24.0051ZM24.6683 35.323H25.4373C25.5174 35.323 25.5895 35.3005 25.6536 35.2557C25.7176 35.2108 25.7689 35.1467 25.8074 35.0634C25.8458 34.9769 25.865 34.8792 25.865 34.7703C25.865 34.6517 25.8426 34.5508 25.7977 34.4675C25.7561 34.3842 25.7 34.3217 25.6295 34.28C25.5622 34.2384 25.4886 34.2176 25.4085 34.2176H24.6683V35.323Z" fill="#F4F4F4"/>
<path d="M26.9995 37.0484V33.636H27.6627V36.4668H29.4025V37.0484H26.9995Z" fill="#F4F4F4"/>
<path d="M29.8062 37.0484V33.636H30.4694V37.0484H29.8062Z" fill="#F4F4F4"/>
<path d="M33.7334 34.2176H32.6424V37.0484H31.984V34.2176H30.893V33.636H33.7334V34.2176Z" fill="#F4F4F4"/>
<path d="M33.9455 36.5485L35.8487 34.2176H33.9984V33.636H36.6369V34.1359L34.7962 36.4668H36.6513V37.0484H33.9455V36.5485Z" fill="#F4F4F4"/>
<path d="M55.3939 25.52C55.3939 24.74 55.5319 23.978 55.8079 23.234C56.0839 22.478 56.4859 21.794 57.0139 21.182C57.5539 20.558 58.2079 20.066 58.9759 19.706C59.7439 19.334 60.6139 19.148 61.5859 19.148C62.7379 19.148 63.7339 19.412 64.5739 19.94C65.4139 20.456 66.0379 21.122 66.4459 21.938L64.8619 23C64.6219 22.484 64.3159 22.076 63.9439 21.776C63.5839 21.476 63.1879 21.266 62.7559 21.146C62.3359 21.026 61.9219 20.966 61.5139 20.966C60.8419 20.966 60.2539 21.104 59.7499 21.38C59.2459 21.644 58.8199 21.998 58.4719 22.442C58.1359 22.886 57.8779 23.384 57.6979 23.936C57.5299 24.488 57.4459 25.04 57.4459 25.592C57.4459 26.204 57.5479 26.798 57.7519 27.374C57.9559 27.938 58.2379 28.442 58.5979 28.886C58.9699 29.318 59.4079 29.66 59.9119 29.912C60.4159 30.164 60.9679 30.29 61.5679 30.29C61.9759 30.29 62.4019 30.218 62.8459 30.074C63.2899 29.93 63.6979 29.708 64.0699 29.408C64.4539 29.096 64.7539 28.688 64.9699 28.184L66.6439 29.138C66.3799 29.774 65.9659 30.314 65.4019 30.758C64.8499 31.202 64.2259 31.538 63.5299 31.766C62.8459 31.994 62.1679 32.108 61.4959 32.108C60.5959 32.108 59.7739 31.922 59.0299 31.55C58.2859 31.166 57.6439 30.662 57.1039 30.038C56.5639 29.402 56.1439 28.694 55.8439 27.914C55.5439 27.122 55.3939 26.324 55.3939 25.52ZM73.6603 32.09C72.7363 32.09 71.9023 31.91 71.1583 31.55C70.4143 31.19 69.7723 30.704 69.2323 30.092C68.6923 29.468 68.2723 28.772 67.9723 28.004C67.6843 27.224 67.5403 26.426 67.5403 25.61C67.5403 24.758 67.6963 23.948 68.0083 23.18C68.3203 22.4 68.7523 21.71 69.3043 21.11C69.8563 20.498 70.5043 20.018 71.2483 19.67C72.0043 19.31 72.8203 19.13 73.6963 19.13C74.6083 19.13 75.4363 19.316 76.1803 19.688C76.9363 20.06 77.5783 20.558 78.1063 21.182C78.6463 21.806 79.0603 22.502 79.3483 23.27C79.6483 24.038 79.7983 24.824 79.7983 25.628C79.7983 26.48 79.6423 27.296 79.3303 28.076C79.0303 28.844 78.6043 29.534 78.0523 30.146C77.5003 30.746 76.8463 31.22 76.0903 31.568C75.3463 31.916 74.5363 32.09 73.6603 32.09ZM69.5923 25.61C69.5923 26.21 69.6883 26.792 69.8803 27.356C70.0723 27.92 70.3423 28.424 70.6903 28.868C71.0503 29.3 71.4823 29.642 71.9863 29.894C72.4903 30.146 73.0543 30.272 73.6783 30.272C74.3263 30.272 74.9023 30.14 75.4063 29.876C75.9103 29.612 76.3303 29.258 76.6663 28.814C77.0143 28.358 77.2783 27.854 77.4583 27.302C77.6383 26.738 77.7283 26.174 77.7283 25.61C77.7283 25.01 77.6323 24.434 77.4403 23.882C77.2603 23.318 76.9903 22.82 76.6303 22.388C76.2703 21.944 75.8383 21.596 75.3343 21.344C74.8423 21.092 74.2903 20.966 73.6783 20.966C73.0303 20.966 72.4543 21.098 71.9503 21.362C71.4463 21.626 71.0203 21.98 70.6723 22.424C70.3243 22.868 70.0543 23.366 69.8623 23.918C69.6823 24.47 69.5923 25.034 69.5923 25.61ZM89.4279 22.226C89.3079 22.094 89.1339 21.956 88.9059 21.812C88.6779 21.656 88.4079 21.512 88.0959 21.38C87.7839 21.248 87.4479 21.14 87.0879 21.056C86.7279 20.972 86.3559 20.93 85.9719 20.93C85.1319 20.93 84.5079 21.086 84.0999 21.398C83.6919 21.71 83.4879 22.142 83.4879 22.694C83.4879 23.102 83.6019 23.426 83.8299 23.666C84.0579 23.894 84.4059 24.086 84.8739 24.242C85.3419 24.398 85.9299 24.566 86.6379 24.746C87.5019 24.95 88.2519 25.196 88.8879 25.484C89.5239 25.76 90.0099 26.132 90.3459 26.6C90.6819 27.068 90.8499 27.686 90.8499 28.454C90.8499 29.102 90.7299 29.66 90.4899 30.128C90.2499 30.596 89.9139 30.98 89.4819 31.28C89.0499 31.568 88.5519 31.784 87.9879 31.928C87.4239 32.06 86.8179 32.126 86.1699 32.126C85.5339 32.126 84.8979 32.06 84.2619 31.928C83.6379 31.796 83.0379 31.604 82.4619 31.352C81.8979 31.088 81.3759 30.77 80.8959 30.398L81.8139 28.67C81.9699 28.826 82.1919 29 82.4799 29.192C82.7799 29.372 83.1219 29.546 83.5059 29.714C83.9019 29.882 84.3279 30.026 84.7839 30.146C85.2519 30.254 85.7259 30.308 86.2059 30.308C87.0099 30.308 87.6219 30.17 88.0419 29.894C88.4739 29.606 88.6899 29.198 88.6899 28.67C88.6899 28.238 88.5519 27.896 88.2759 27.644C87.9999 27.38 87.5979 27.158 87.0699 26.978C86.5419 26.798 85.9119 26.618 85.1799 26.438C84.3399 26.21 83.6379 25.964 83.0739 25.7C82.5099 25.424 82.0839 25.076 81.7959 24.656C81.5199 24.224 81.3819 23.678 81.3819 23.018C81.3819 22.178 81.5859 21.47 81.9939 20.894C82.4019 20.306 82.9539 19.868 83.6499 19.58C84.3579 19.28 85.1499 19.13 86.0259 19.13C86.6019 19.13 87.1479 19.196 87.6639 19.328C88.1799 19.448 88.6599 19.616 89.1039 19.832C89.5599 20.048 89.9739 20.294 90.3459 20.57L89.4279 22.226ZM92.8718 32V19.22H98.2358C98.8118 19.22 99.3398 19.34 99.8198 19.58C100.3 19.82 100.72 20.138 101.08 20.534C101.44 20.93 101.716 21.374 101.908 21.866C102.1 22.358 102.196 22.862 102.196 23.378C102.196 24.086 102.034 24.764 101.71 25.412C101.398 26.048 100.948 26.564 100.36 26.96C99.7838 27.356 99.1118 27.554 98.3438 27.554H94.8878V32H92.8718ZM94.8878 25.772H98.2178C98.6018 25.772 98.9378 25.67 99.2258 25.466C99.5138 25.25 99.7358 24.962 99.8918 24.602C100.06 24.242 100.144 23.834 100.144 23.378C100.144 22.91 100.048 22.496 99.8558 22.136C99.6638 21.776 99.4118 21.5 99.0998 21.308C98.7998 21.104 98.4698 21.002 98.1098 21.002H94.8878V25.772ZM104.087 32V19.22H106.103V30.218H112.961V32H104.087ZM114.598 32V19.22H116.614V32H114.598ZM128.881 21.002H124.633V32H122.599V21.002H118.333V19.22H128.881V21.002ZM129.712 30.452L137.434 21.002H129.892V19.22H139.828V20.768L132.304 30.218H139.846V32H129.712V30.452Z" fill="#1A051D"/>
</svg>
